<?xml version="1.0" encoding="utf-8"?>
<!-- Generator: Adobe Illustrator 19.2.1, SVG Export Plug-In . SVG Version: 6.00 Build 0)  -->
<svg version="1.1" id="Layer_1" xmlns="http://www.w3.org/2000/svg" xmlns:xlink="http://www.w3.org/1999/xlink" x="0px" y="0px"
	 viewBox="0 0 120.9 36.8" style="enable-background:new 0 0 120.9 36.8;" xml:space="preserve">
<style type="text/css">
	.st0{fill:url(#SVGID_1_);}
	.st1{opacity:0.9;fill:#FFFFFF;}
	.st2{fill:url(#SVGID_2_);}
</style>
<g>
	
		<linearGradient id="SVGID_1_" gradientUnits="userSpaceOnUse" x1="19.3979" y1="-0.2621" x2="19.3979" y2="36.5255" gradientTransform="matrix(1 0 0 -1 0 36.5255)">
		<stop  offset="0" style="stop-color:#F05D4E"/>
		<stop  offset="0.33" style="stop-color:#F27421"/>
		<stop  offset="0.66" style="stop-color:#FCDB43"/>
		<stop  offset="0.9335" style="stop-color:#27B899"/>
	</linearGradient>
	<path class="st0" d="M24.5,4.7c-1.3,0-2.6,0.2-3.9,0.5V0l-2.3,1.2c-0.1,0-0.1,0.1-0.1,0.2v3.8c-1.3-0.3-2.6-0.5-3.9-0.5
		C6.4,4.7,0,10.8,0,18.3c0,4.9,2,9.6,5.7,13c3.6,3.5,8.6,5.4,13.7,5.4c5.2,0,10.1-1.9,13.7-5.4c3.7-3.5,5.7-8.1,5.7-13
		C38.8,10.8,32.4,4.7,24.5,4.7z M19.4,8.2l6.5,1.9l-0.3-0.2L22,7.2C22.8,7.1,23.6,7,24.5,7c6.6,0,11.9,5.1,11.9,11.3
		c0,8.9-7.6,16.2-17,16.2s-17-7.2-17-16.2C2.4,12.1,7.7,7,14.3,7c0.8,0,1.7,0.1,2.5,0.2l-3.9,2.9L19.4,8.2z"/>
</g>
<g>
	<path class="st1" d="M45.8,14C45.8,14,45.8,14,45.8,14C45.8,14,45.8,14,45.8,14l0-5c0,0,0,0,0,0c0,0,0,0,0,0l1.7,0
		c1.3,0,1.7,0.5,1.7,1.7c0,1.2-0.5,1.7-1.7,1.7h-0.4c-0.3,0-0.4,0.2-0.4,0.4V14c0,0,0,0,0,0c0,0,0,0,0,0H45.8z M47.1,9.9
		c-0.3,0-0.4,0.2-0.4,0.4v0.6c0,0.3,0.2,0.4,0.4,0.4h0.4c0.4,0,0.8-0.1,0.8-0.7c0-0.7-0.4-0.7-0.8-0.7H47.1z"/>
	<path class="st1" d="M55.3,14l-0.8-1.6l0,0c-0.1-0.1-0.1-0.1-0.2-0.1h-0.3c-0.3,0-0.5,0.2-0.5,0.5V14c0,0,0,0,0,0h-0.9c0,0,0,0,0,0
		V9c0,0,0,0,0,0h1.7c1.3,0,1.7,0.5,1.7,1.7c0,0.7-0.2,1.1-0.5,1.4c-0.1,0.1-0.1,0.2-0.1,0.3l0,0l0.8,1.5c0,0,0,0.1,0,0.1
		c0,0,0,0-0.1,0H55.3z M53.9,9.9c-0.3,0-0.5,0.2-0.5,0.5v0.6c0,0.3,0.2,0.5,0.5,0.5h0.4c0.4,0,0.8-0.1,0.8-0.7
		c0-0.7-0.4-0.7-0.8-0.7H53.9z"/>
	<path class="st1" d="M61.1,14.1c-1.2,0-1.7-0.6-1.7-1.7v-1.9c0-1.1,0.6-1.7,1.7-1.7s1.7,0.6,1.7,1.7v1.9
		C62.9,13.6,62.3,14.1,61.1,14.1z M61.1,9.7c-0.8,0-0.8,0.7-0.8,1.2V12c0,0.5,0,1.2,0.8,1.2c0.8,0,0.8-0.7,0.8-1.2v-1.1
		C61.9,10.4,61.9,9.7,61.1,9.7z"/>
	<path class="st1" d="M66.3,14C66.3,14,66.3,14,66.3,14C66.3,14,66.3,14,66.3,14l0-5c0,0,0,0,0,0c0,0,0,0,0,0l1.7,0
		c1.3,0,1.7,0.4,1.7,1.7v1.7c0,1.2-0.5,1.7-1.7,1.7H66.3z M67.7,9.9c-0.3,0-0.4,0.2-0.4,0.4v2.3c0,0.3,0.2,0.4,0.4,0.4h0.4
		c0.4,0,0.8-0.1,0.8-0.7v-1.7c0-0.7-0.4-0.7-0.8-0.7H67.7z"/>
	<path class="st1" d="M75,14.1c-1.2,0-1.7-0.6-1.7-1.7V9c0,0,0,0,0,0l0.9,0c0,0,0,0,0,0c0,0,0,0,0,0V12c0,0.5,0,1.2,0.8,1.2
		c0.8,0,0.8-0.7,0.8-1.2V9c0,0,0,0,0,0c0,0,0.9,0,0.9,0c0,0,0,0,0,0c0,0,0,0,0,0v3.5C76.7,13.6,76.1,14.1,75,14.1z"/>
	<path class="st1" d="M81.9,14.1c-1.2,0-1.7-0.6-1.7-1.7v-1.9c0-1.1,0.6-1.7,1.7-1.7c1.1,0,1.7,0.5,1.7,1.5l-0.9,0.2
		c0,0-0.1,0-0.1-0.1c-0.1-0.5-0.3-0.7-0.8-0.7c-0.8,0-0.8,0.7-0.8,1.2V12c0,0.5,0,1.2,0.8,1.2c0.6,0,0.8-0.4,0.8-0.7l0,0
		c0,0,0-0.1,0-0.1l0.9,0.2C83.6,13.3,83.2,14.1,81.9,14.1z"/>
	<path class="st1" d="M88.2,14C88.2,14,88.2,14,88.2,14C88.2,14,88.2,14,88.2,14l0-3.7c0-0.3-0.2-0.4-0.4-0.4h-1.1c0,0,0,0,0,0
		c0,0,0,0,0,0V9c0,0,0,0,0,0l4,0c0,0,0,0,0,0c0,0,0,0,0,0v0.9c0,0,0,0,0,0c0,0-1.1,0-1.1,0c-0.3,0-0.4,0.2-0.4,0.4V14c0,0,0,0,0,0
		c0,0,0,0,0,0H88.2z"/>
	<path class="st1" d="M93.9,14C93.9,14,93.9,14,93.9,14C93.9,14,93.9,14,93.9,14l0-5c0,0,0,0,0,0c0,0,0.9,0,0.9,0c0,0,0,0,0,0
		c0,0,0,0,0,0v5c0,0,0,0,0,0c0,0,0,0,0,0H93.9z"/>
	<path class="st1" d="M99.2,14C99.2,14,99.2,14,99.2,14L98,9H99c0,0,0,0,0.1,0l0.7,3c0,0.1,0.1,0.2,0.3,0.2c0.1,0,0.2-0.1,0.3-0.2
		l0.7-3c0,0,0,0,0.1,0h0.9l-1.1,5c0,0,0,0-0.1,0H99.2z"/>
	<path class="st1" d="M105.2,14C105.2,14,105.1,14,105.2,14C105.1,14,105.1,14,105.2,14l0-5c0,0,0,0,0,0c0,0,0.9,0,0.9,0
		c0,0,0,0,0,0c0,0,0,0,0,0v5c0,0,0,0,0,0c0,0,0,0,0,0H105.2z"/>
	<path class="st1" d="M110.9,14C110.8,14,110.8,14,110.9,14C110.8,14,110.8,14,110.9,14l0-3.7c0-0.3-0.2-0.4-0.4-0.4h-1.1
		c0,0,0,0,0,0c0,0,0,0,0,0V9c0,0,0,0,0,0l4,0c0,0,0,0,0,0c0,0,0,0,0,0v0.9c0,0,0,0,0,0c0,0-1.1,0-1.1,0c-0.3,0-0.4,0.2-0.4,0.4V14
		c0,0,0,0,0,0c0,0,0,0,0,0H110.9z"/>
	<path class="st1" d="M117.7,14C117.7,14,117.7,14,117.7,14C117.7,14,117.7,14,117.7,14l0-1.8c0,0,0-0.1,0-0.2L116.3,9h1.1
		c0.1,0,0.1,0,0.1,0l0.6,1.5c0.1,0.1,0.1,0.2,0.2,0.2c0.1,0,0.2-0.1,0.2-0.2l0.6-1.5c0,0,0,0,0.1,0h1.1l-1.4,3.1c0,0.1,0,0.1,0,0.2
		V14c0,0,0,0,0,0c0,0,0,0,0,0H117.7z"/>
</g>
<linearGradient id="SVGID_2_" gradientUnits="userSpaceOnUse" x1="74.6617" y1="-8.1321" x2="100.1787" y2="85.4487">
	<stop  offset="0" style="stop-color:#E95644"/>
	<stop  offset="1" style="stop-color:#02D8D0"/>
</linearGradient>
<path class="st2" d="M52,18.3v1.3c0,0.3-0.2,0.6-0.6,0.6h-1.6v11.5c0,0.3-0.2,0.6-0.6,0.6h-1.3c-0.3,0-0.6-0.2-0.6-0.6V20.2h-1.6
	c-0.3,0-0.6-0.2-0.6-0.6v-1.3c0-0.3,0.2-0.6,0.6-0.6h5.6C51.7,17.7,52,18,52,18.3z M51,18.8c0-0.1-0.1-0.1-0.1-0.1h-4.6
	c-0.1,0-0.1,0.1-0.1,0.1v0.3c0,0.1,0.1,0.1,0.1,0.1h2v11.9c0,0.1,0.1,0.1,0.1,0.1h0.3c0.1,0,0.1-0.1,0.1-0.1V19.3h2
	c0.1,0,0.1-0.1,0.1-0.1V18.8z M63.5,22.1c0,1.2-0.5,2.2-1.2,2.9c0.8,0.7,1.2,1.8,1.2,3v3.6c0,0.3-0.2,0.6-0.6,0.6h-1.3
	c-0.3,0-0.6-0.2-0.6-0.6V28c0-1-0.8-1.8-1.8-1.8h-1.4v5.5c0,0.3-0.3,0.6-0.6,0.6h-1.3c-0.3,0-0.6-0.2-0.6-0.6V18.8
	c0-0.6,0.5-1.1,1.1-1.1h2.9c2.3,0,4.1,1.8,4.1,4.1V22.1z M62.5,21.8c0-1.7-1.4-3.1-3.1-3.1h-2.9c-0.1,0-0.2,0.1-0.2,0.2v12.3
	c0,0.1,0.1,0.1,0.2,0.1h0.3c0.1,0,0.1-0.1,0.1-0.1v-5.9h2.3c1.5,0,2.7,1.2,2.7,2.7v3.2c0,0.1,0.1,0.1,0.1,0.1h0.3
	c0.1,0,0.2-0.1,0.2-0.1V28c0-1.4-0.9-2.5-2.1-3c1.2-0.4,2.1-1.6,2.1-2.9V21.8z M61.9,21.8v0.3c0,1.5-1,2.5-2.5,2.5h-2.5v-5.4h2.5
	C60.9,19.3,61.9,20.3,61.9,21.8z M61,21.8c0-1-0.6-1.6-1.6-1.6h-1.6v3.5h1.6c1,0,1.6-0.6,1.6-1.6V21.8z M75.5,21.8v9.9
	c0,0.3-0.2,0.6-0.6,0.6h-1.1c-0.3,0-0.6-0.2-0.6-0.6v-5.5h-3.6v5.5c0,0.3-0.2,0.6-0.6,0.6h-1.1c-0.3,0-0.6-0.2-0.6-0.6v-9.9
	c0-2.3,1.8-4.1,4.1-4.1C73.7,17.7,75.5,19.5,75.5,21.8z M74.6,21.8c0-1.7-1.4-3.1-3.1-3.1c-1.7,0-3.1,1.4-3.1,3.1v9.4
	c0,0.1,0.1,0.1,0.1,0.1h0.3c0.1,0,0.2-0.1,0.2-0.1v-5.9H74v5.9c0,0.1,0.1,0.1,0.1,0.1h0.3c0.1,0,0.1-0.1,0.1-0.1V21.8z M74,21.8v2.9
	h-5.1v-2.9c0-1.5,1-2.5,2.5-2.5C73,19.3,74,20.3,74,21.8z M73,21.8c0-1-0.6-1.6-1.6-1.6c-1,0-1.6,0.6-1.6,1.6v1.9H73V21.8z M85,23
	v-1.2c0-1-0.6-1.6-1.6-1.6s-1.6,0.6-1.6,1.6v6.4c0,1,0.6,1.6,1.6,1.6s1.6-0.6,1.6-1.6v-1.3c0-0.3,0.2-0.6,0.6-0.6H87
	c0.3,0,0.6,0.2,0.6,0.6v1.3c0,2.2-1.8,4.1-4.1,4.1c-2.3,0-4.1-1.8-4.1-4.1v-6.4c0-2.2,1.8-4.1,4.1-4.1c2.2,0,4.1,1.8,4.1,4.1V23
	c0,0.3-0.2,0.6-0.6,0.6h-1.3C85.3,23.5,85,23.3,85,23z M86,21.8v0.7c0,0.1,0,0.1,0.1,0.1h0.3c0.1,0,0.1-0.1,0.1-0.1v-0.7
	c0-1.7-1.4-3.1-3.1-3.1c-1.7,0-3.1,1.4-3.1,3.1v6.4c0,1.7,1.4,3.1,3.1,3.1c1.7,0,3.1-1.4,3.1-3.1v-0.8c0-0.1-0.1-0.2-0.1-0.2h-0.3
	c-0.1,0-0.1,0.1-0.1,0.2v0.8c0,1.5-1,2.5-2.5,2.5c-1.5,0-2.5-1-2.5-2.5v-6.4c0-1.5,1-2.5,2.5-2.5C85,19.2,86,20.2,86,21.8z
	 M99.4,21.9c0,1.2-0.5,2.2-1.2,2.9c0.8,0.7,1.1,2,1.1,3.2v3.6c0,0.3-0.3,0.6-0.6,0.6h-1.3c-0.3,0-0.6-0.2-0.6-0.6V28
	c0-1-0.8-1.8-1.8-1.8h-1.4v5.5c0,0.3-0.2,0.6-0.6,0.6h-1.3c-0.3,0-0.6-0.2-0.6-0.6v-5.5v-2.5v-5.6c0,0,0,0,0,0
	c0-0.3,0.2-0.6,0.6-0.6H93c0.3,0,0.6,0.3,0.6,0.6v5.7h1.6c1,0,1.8-0.8,1.8-1.8V18c0-0.3,0.2-0.6,0.6-0.6h1.3c0.3,0,0.6,0.3,0.6,0.6
	L99.4,21.9z M98.5,18.6c0-0.1,0-0.1-0.1-0.1h-0.3c-0.1,0-0.2,0.1-0.2,0.1v3.3c0,1.5-1.2,2.7-2.7,2.7h-2.5v-6.1
	c0-0.1-0.1-0.1-0.1-0.1h-0.3c-0.1,0-0.1,0.1-0.1,0.1v6.1v0.6v5.9c0,0.1,0.1,0.1,0.1,0.1h0.3c0.1,0,0.1-0.1,0.1-0.1v-5.9h2.3
	c1.5,0,2.7,1.2,2.7,2.7v3.2c0,0.1,0.1,0.1,0.2,0.1h0.3c0.1,0,0.1-0.1,0.1-0.1V28c0-1.4-0.6-2.7-1.9-3.2c1.2-0.4,2-1.6,2-2.9V18.6z
	 M105.4,20.2v3.6h3.1c0.3,0,0.6,0.2,0.6,0.6v1.3c0,0.3-0.2,0.6-0.6,0.6h-3.1v3.5h3.1c0.3,0,0.6,0.3,0.6,0.6v1.3
	c0,0.3-0.2,0.6-0.6,0.6H104c-0.6,0-1.1-0.5-1.1-1.1V18.8c0-0.6,0.5-1.1,1.1-1.1h4.4c0.3,0,0.6,0.3,0.6,0.6v1.3
	c0,0.3-0.2,0.6-0.6,0.6H105.4z M104.5,24.7v-5.4h3.5c0.1,0,0.1-0.1,0.1-0.1v-0.3c0-0.1-0.1-0.1-0.1-0.1H104c-0.1,0-0.2,0.1-0.2,0.2
	v12.3c0,0.1,0.1,0.2,0.2,0.2h3.9c0.1,0,0.1-0.1,0.1-0.1v-0.3c0-0.1-0.1-0.1-0.1-0.1h-3.5v-5.4h3.5c0.1,0,0.1-0.1,0.1-0.1v-0.3
	c0-0.1-0.1-0.1-0.1-0.1H104.5z M120.9,22.1c0,1.2-0.5,2.2-1.2,2.9c0.8,0.7,1.2,1.8,1.2,3v3.6c0,0.3-0.2,0.6-0.6,0.6h-1.3
	c-0.3,0-0.6-0.2-0.6-0.6V28c0-1-0.8-1.8-1.8-1.8h-1.4v5.5c0,0.3-0.3,0.6-0.6,0.6h-1.3c-0.3,0-0.6-0.2-0.6-0.6V18.8
	c0-0.6,0.5-1.1,1.1-1.1h2.9c2.3,0,4.1,1.8,4.1,4.1V22.1z M119.9,21.8c0-1.7-1.4-3.1-3.1-3.1h-2.9c-0.1,0-0.2,0.1-0.2,0.2v12.3
	c0,0.1,0.1,0.1,0.2,0.1h0.3c0.1,0,0.1-0.1,0.1-0.1v-5.9h2.3c1.5,0,2.7,1.2,2.7,2.7v3.2c0,0.1,0.1,0.1,0.1,0.1h0.3
	c0.1,0,0.2-0.1,0.2-0.1V28c0-1.4-0.9-2.5-2.1-3c1.2-0.4,2.1-1.6,2.1-2.9V21.8z M119.3,21.8v0.3c0,1.5-1,2.5-2.5,2.5h-2.5v-5.4h2.5
	C118.3,19.3,119.3,20.3,119.3,21.8z M118.4,21.8c0-1-0.6-1.6-1.6-1.6h-1.6v3.5h1.6c1,0,1.6-0.6,1.6-1.6V21.8z"/>
</svg>
