<?xml version="1.0" encoding="utf-8"?>
<!-- Generator: Adobe Illustrator 21.0.2, SVG Export Plug-In . SVG Version: 6.00 Build 0)  -->
<svg version="1.1" id="Layer_1" xmlns="http://www.w3.org/2000/svg" xmlns:xlink="http://www.w3.org/1999/xlink" x="0px" y="0px"
	 viewBox="0 0 341.2 317.6" style="enable-background:new 0 0 341.2 317.6;" xml:space="preserve">
<style type="text/css">
	.st0{fill:none;}
	.st1{fill:url(#SVGID_1_);}
	.st2{fill:#FAC400;}
	.st3{fill:url(#SVGID_2_);}
</style>
<g>
	<path class="st0" d="M295.9,205c-8.2-16.4-25.2-27.7-44.8-27.7c-27.6,0-50.1,22.5-50.1,50.1c0,20.8,12.7,38.7,30.8,46.2
		C260.7,258.5,283.5,234.3,295.9,205z"/>
	<path class="st0" d="M180.6,283.4c-3.1-3.9-5.9-8-8.3-12.4l10.1-11.4l-5.4-16l-15-3.1c-0.8-4.9-1-10.1-1-15l14.5-4.6l3.4-16.5
		l-11.4-10.1c1.8-4.6,4.1-9,6.7-13.4l15,3.1l11.1-12.7l-4.9-14.5c3.9-3.1,8-5.9,12.4-8.3l11.4,10.1l16-5.4l3.1-14.7
		c4.9-0.8,10.1-1,15-1l4.9,14.5l16.5,3.4l9.8-11.4c4.6,1.8,9,4.1,13.4,6.7l-3.1,15l9.9,8.7c1-6.5,1.6-13.2,1.6-20
		c0-52.6-45-95.4-100.3-95.4c-7.1,0-14.1,0.7-20.9,2.1l30.3,22.1l2.3,1.6L163,69.2l-54.8,16l33.1-24.1c-6.8-1.4-13.8-2.1-20.9-2.1
		c-55.3,0-100.3,42.8-100.3,95.4c0,75,64.2,136,143.1,136c13.7,0,26.9-1.8,39.4-5.2l-7.5-6.6L180.6,283.4z"/>
	<path class="st0" d="M278.6,264.1c-4.2,4-8.6,7.8-13.2,11.3c16.9-5,30-18.7,34.3-35.9C293.7,248.3,286.6,256.5,278.6,264.1z"/>
	
		<linearGradient id="SVGID_1_" gradientUnits="userSpaceOnUse" x1="163.2501" y1="-81.4" x2="163.2501" y2="-391" gradientTransform="matrix(1 0 0 1 0 391)">
		<stop  offset="0" style="stop-color:#F05D4E"/>
		<stop  offset="0.33" style="stop-color:#F27421"/>
		<stop  offset="0.66" style="stop-color:#FCDB43"/>
		<stop  offset="0.9335" style="stop-color:#27B899"/>
	</linearGradient>
	<path class="st1" d="M207.7,289.6l-5.2-4.5c-12.5,3.4-25.8,5.2-39.4,5.2c-78.9,0-143.1-61-143.1-136c0-52.6,45-95.4,100.3-95.4
		c7.1,0,14.1,0.7,20.9,2.1l-33.1,24.1l54.8-16l54.7,15.6l-2.3-1.6L185,61c6.8-1.4,13.8-2.1,20.9-2.1c55.3,0,100.3,42.8,100.3,95.4
		c0,6.8-0.5,13.5-1.6,20l2.8,2.4l14.5-4.9c1,1.3,2,2.6,3,4c1-7.1,1.6-14.2,1.6-21.5c0.1-63.2-54-114.6-120.5-114.6
		c-11.1,0-22.1,1.4-32.6,4.3V0l-19.3,10.4c-0.5,0.3-0.9,0.8-0.9,1.4V44c-10.6-2.8-21.5-4.3-32.6-4.3C54.1,39.7,0,91.1,0,154.3
		c0,41.5,17,80.4,47.8,109.8c30.7,29.1,72.1,45.5,115.4,45.5c14.1,0,28-1.7,41.3-5c0,0,0,0-0.1,0L207.7,289.6z"/>
	<path class="st2" d="M330.1,184.2c-1.6-2.9-3.3-5.7-5.3-8.4c-0.9,6.4-2.3,12.7-4,18.9L330.1,184.2z"/>
	
		<radialGradient id="SVGID_2_" cx="251.05" cy="30.55" r="90.15" gradientTransform="matrix(1 0 0 -1 0 258)" gradientUnits="userSpaceOnUse">
		<stop  offset="0.1004" style="stop-color:#FCDB43"/>
		<stop  offset="0.9335" style="stop-color:#27B899"/>
	</radialGradient>
	<path class="st3" d="M327,234.3l14.2-4.6c0-4.9-0.3-10.1-1-15l-14.7-3.1l-5.1-15.2l-0.3-0.9l0.8-0.9c2.1-1.9,6.1-6,9.3-10.5
		c-1.8-4.1-7.2-11.1-8.3-12.4l-14.5,4.9l-2.8-2.4l-9.9-8.7l3.1-15c-4.4-2.6-8.8-4.9-13.4-6.7l-9.8,11.4l-16.5-3.4l-4.9-14.5
		c-4.9,0-10.1,0.3-15,1l-3.1,14.7l-16,5.4l-11.4-10.1c-4.4,2.3-8.5,5.2-12.4,8.3l4.9,14.5l-11.1,12.7l-15-3.1
		c-2.6,4.4-4.9,8.8-6.7,13.4l11.4,10.1l-3.4,16.5l-14.5,4.6c0,4.9,0.3,10.1,1,15l15,3.1l5.4,16l-10.1,11.4c2.3,4.4,5.2,8.5,8.3,12.4
		l14.5-4.9l7.5,6.6l5.2,4.5l-3.4,15c0,0,0,0,0.1,0c4.4,2.6,8.7,4.9,13.4,6.7l10.1-11.4l16.5,3.4l4.9,14.5c4.9,0,10.1-0.3,15-1
		l3.1-14.7l16-5.4l11.4,10.1c4.4-2.3,8.5-5.2,12.4-8.3l-4.9-14.5l11.1-12.7l15,3.1c2.6-4.4,4.9-8.8,6.7-13.4l-11.4-10.1L327,234.3z
		 M265.4,275.4c-4.5,1.4-9.3,2.1-14.3,2.1c-6.8,0-13.4-1.4-19.3-3.9c-18.1-7.6-30.8-25.4-30.8-46.2c0-27.6,22.5-50.1,50.1-50.1
		c19.6,0,36.6,11.3,44.8,27.7c3.4,6.7,5.3,14.3,5.3,22.4c0,4.2-0.5,8.2-1.5,12.1C295.4,256.7,282.3,270.3,265.4,275.4z"/>
</g>
</svg>
