<?xml version="1.0" encoding="utf-8"?>
<!-- Generator: Adobe Illustrator 19.2.1, SVG Export Plug-In . SVG Version: 6.00 Build 0)  -->
<svg version="1.1" id="Layer_1" xmlns="http://www.w3.org/2000/svg" xmlns:xlink="http://www.w3.org/1999/xlink" x="0px" y="0px"
	 viewBox="0 0 343.5 340.5" style="enable-background:new 0 0 343.5 340.5;" xml:space="preserve">
<style type="text/css">
	.st0{fill:url(#SVGID_1_);}
	.st1{fill:url(#SVGID_2_);}
	.st2{fill:url(#SVGID_3_);}
	.st3{fill:#FFFFFF;}
</style>
<g>
	<g>
		
			<linearGradient id="SVGID_1_" gradientUnits="userSpaceOnUse" x1="171.9105" y1="72.7949" x2="171.9105" y2="382.3949" gradientTransform="matrix(1 0 0 -1 0 391.7996)">
			<stop  offset="0" style="stop-color:#F05D4E"/>
			<stop  offset="0.33" style="stop-color:#F27421"/>
			<stop  offset="0.66" style="stop-color:#FCDB43"/>
			<stop  offset="0.9335" style="stop-color:#27B899"/>
		</linearGradient>
		<path class="st0" d="M214.7,49.1c-11.1,0-22.1,1.4-32.6,4.3v-44l-19.3,10.4c-0.5,0.3-0.9,0.8-0.9,1.4v32.2
			c-10.6-2.8-21.5-4.3-32.6-4.3C62.8,49.1,8.7,100.5,8.7,163.7c0,41.5,17,80.4,47.8,109.8c30.7,29.1,72.1,45.5,115.4,45.5
			c43.6,0,84.6-16.1,115.5-45.5c30.8-29.3,47.8-68.3,47.8-109.8C335.3,100.5,281.2,49.1,214.7,49.1z M171.7,78.5l54.7,15.6l-2.3-1.6
			l-30.3-22.1c6.8-1.4,13.8-2.1,20.9-2.1c55.3,0,100.3,42.8,100.3,95.4c0,75-64.2,136-143.1,136s-143.1-61-143.1-136
			c0-52.6,45-95.4,100.3-95.4c7.1,0,14.1,0.7,20.9,2.1l-33.1,24.1L171.7,78.5z"/>
	</g>
	<g>
		<g>
			<radialGradient id="SVGID_2_" cx="259.0931" cy="259.8831" r="71.0954" gradientUnits="userSpaceOnUse">
				<stop  offset="0" style="stop-color:#77DB86"/>
				<stop  offset="0.9335" style="stop-color:#27B899"/>
			</radialGradient>
			<path class="st1" d="M259.1,331L259.1,331c-39.3,0-71.1-31.8-71.1-71.1l0,0c0-39.3,31.8-71.1,71.1-71.1l0,0
				c39.3,0,71.1,31.8,71.1,71.1l0,0C330.2,299.1,298.4,331,259.1,331z"/>
			<radialGradient id="SVGID_3_" cx="259.0931" cy="259.8831" r="73.8298" gradientUnits="userSpaceOnUse">
				<stop  offset="0" style="stop-color:#87DB43"/>
				<stop  offset="0.9335" style="stop-color:#27B899"/>
			</radialGradient>
			<path class="st2" d="M259.1,333.7c-40.7,0-73.8-33.1-73.8-73.8s33.1-73.8,73.8-73.8s73.8,33.1,73.8,73.8S299.8,333.7,259.1,333.7
				z M259.1,191.5c-37.7,0-68.4,30.7-68.4,68.4s30.7,68.4,68.4,68.4s68.4-30.7,68.4-68.4S296.8,191.5,259.1,191.5z"/>
		</g>
		<path class="st3" d="M259.1,299.5c-1.5,0-2.7-1.2-2.7-2.7v-71.1c0-1.5,1.2-2.7,2.7-2.7c1.5,0,2.7,1.2,2.7,2.7v71.1
			C261.8,298.3,260.6,299.5,259.1,299.5z"/>
		<polygon class="st3" points="284.5,252.2 259.1,226.8 233.7,252.2 229.8,248.4 259.1,219.1 288.4,248.4 		"/>
	</g>
</g>
</svg>
