<svg width="20" height="20" viewBox="0 0 20 20" fill="none" xmlns="http://www.w3.org/2000/svg">
<path fill-rule="evenodd" clip-rule="evenodd" d="M13.2501 4.73113C13.1485 4.62453 13.0073 4.5648 12.8601 4.56613C12.7096 4.56285 12.5645 4.62268 12.4601 4.73113L2.64011 14.5631C2.41489 14.81 2.24449 15.1017 2.14011 15.4191L1.02011 19.5481C0.980196 19.6612 0.99497 19.7864 1.06011 19.8871C1.12207 19.9607 1.21398 20.0022 1.31011 20.0001C1.35747 19.9999 1.40457 19.9931 1.45011 19.9801L5.57011 18.8541C5.89057 18.7539 6.18446 18.583 6.43011 18.3541L16.2501 8.52113C16.4655 8.29796 16.4655 7.94431 16.2501 7.72113L13.2501 4.73113ZM19.2001 1.77313C18.7056 1.27813 18.0347 1 17.3351 1C16.6354 1 15.9645 1.27813 15.4701 1.77313L15.0501 2.19513C14.8755 2.33973 14.7672 2.54909 14.7501 2.77513C14.7471 2.86033 14.7797 2.94293 14.8401 3.00313L17.9401 6.10913C18.0162 6.17862 18.1171 6.21464 18.2201 6.20913C18.4373 6.19179 18.6387 6.08892 18.7801 5.92313L19.2001 5.50113C20.2268 4.47056 20.2268 2.80371 19.2001 1.77313Z" fill="#CACACA"/>
</svg>
