<?xml version="1.0" encoding="utf-8"?>
<!-- Generator: Adobe Illustrator 19.2.1, SVG Export Plug-In . SVG Version: 6.00 Build 0)  -->
<svg version="1.1" id="Layer_1" xmlns="http://www.w3.org/2000/svg" xmlns:xlink="http://www.w3.org/1999/xlink" x="0px" y="0px"
	 viewBox="0 0 326.5 313.4" style="enable-background:new 0 0 326.5 313.4;" xml:space="preserve">
<style type="text/css">
	.st0{fill:url(#SVGID_1_);}
</style>
<linearGradient id="SVGID_1_" gradientUnits="userSpaceOnUse" x1="163.25" y1="313.4427" x2="163.25" y2="-4.538379e-10">
	<stop  offset="0" style="stop-color:#F05D4E"/>
	<stop  offset="0.33" style="stop-color:#F9A644"/>
	<stop  offset="0.66" style="stop-color:#FCDB43"/>
	<stop  offset="1" style="stop-color:#27B899"/>
</linearGradient>
<path class="st0" d="M326.5,150.2c0-35.6-15.6-67.7-40.2-89.8l23.1-23.1l-17.9-17.9l-26,26c-17.6-10-37.8-15.7-59.4-15.7
	c-11.1,0-22.1,1.5-32.6,4.5V0l-20.2,11.4v22.7c-10.6-3-21.5-4.5-32.6-4.5c-21.6,0-41.9,5.7-59.4,15.7l-26-26L17.2,37.3l23.1,23.1
	C15.6,82.5,0,114.5,0,150.2c0,43,16.5,83.4,46.5,114.1l-29.3,29.3l17.9,17.9L65.6,281c28,21,62,32.4,97.6,32.4
	c35.7,0,69.6-11.4,97.6-32.4l30.5,30.5l17.9-17.9L280,264.3C310,233.6,326.5,193.2,326.5,150.2z M306.3,150.2
	c0,38.8-15.5,74-40.6,99.8l-84.5-84.5L272,74.7C293,93.1,306.3,120.1,306.3,150.2z M120.5,49.9c7.1,0,14.1,0.7,20.9,2.2l-33,25.4
	l54.5-16.9L217.6,77l-2.3-1.7L185,52.1c6.8-1.5,13.8-2.2,20.9-2.2c16,0,31.1,3.8,44.5,10.4l-87.2,87.2L76,60.3
	C89.4,53.6,104.5,49.9,120.5,49.9z M20.2,150.2c0-30.1,13.3-57.1,34.3-75.5l90.8,90.8L60.8,250C35.7,224.2,20.2,189,20.2,150.2z
	 M163.3,293.2c-31,0-59.7-9.9-83.1-26.7l83.1-83.1l83.1,83.1C222.9,283.3,194.2,293.2,163.3,293.2z"/>
</svg>
